<?xml version="1.0" encoding="UTF-8" standalone="no"?>
<!DOCTYPE svg PUBLIC "-//W3C//DTD SVG 1.1//EN"
 "http://www.w3.org/Graphics/SVG/1.1/DTD/svg11.dtd">
<!-- Generated by graphviz version 2.40.1 (20161225.0304)
 -->
<!-- Title: %3 Pages: 1 -->
<svg width="1118pt" height="446pt"
 viewBox="0.00 0.00 1118.00 446.00" xmlns="http://www.w3.org/2000/svg" xmlns:xlink="http://www.w3.org/1999/xlink">
<g id="graph0" class="graph" transform="scale(1 1) rotate(0) translate(4 442)">
<title>%3</title>
<polygon fill="#ffffff" stroke="transparent" points="-4,4 -4,-442 1114,-442 1114,4 -4,4"/>
<!-- X1 -->
<g id="node1" class="node">
<title>X1</title>
<polygon fill="#ffffff" stroke="#000000" points="0,-166 0,-258 303,-258 303,-166 0,-166"/>
<text text-anchor="middle" x="151.5" y="-242.8" font-family="arial" font-size="14.00" fill="#000000">X1</text>
<polyline fill="none" stroke="#000000" points="0,-235 303,-235 "/>
<text text-anchor="middle" x="45.5" y="-219.8" font-family="arial" font-size="14.00" fill="#000000">436400200</text>
<polyline fill="none" stroke="#000000" points="91,-212 91,-235 "/>
<text text-anchor="middle" x="148.5" y="-219.8" font-family="arial" font-size="14.00" fill="#000000">Molex Micro&#45;Fit</text>
<polyline fill="none" stroke="#000000" points="206,-212 206,-235 "/>
<text text-anchor="middle" x="230" y="-219.8" font-family="arial" font-size="14.00" fill="#000000">male</text>
<polyline fill="none" stroke="#000000" points="254,-212 254,-235 "/>
<text text-anchor="middle" x="278.5" y="-219.8" font-family="arial" font-size="14.00" fill="#000000">2&#45;pin</text>
<polyline fill="none" stroke="#000000" points="0,-212 303,-212 "/>
<text text-anchor="middle" x="81.5" y="-196.8" font-family="arial" font-size="14.00" fill="#000000">GND</text>
<polyline fill="none" stroke="#000000" points="0,-189 163,-189 "/>
<text text-anchor="middle" x="81.5" y="-173.8" font-family="arial" font-size="14.00" fill="#000000">VCC</text>
<polyline fill="none" stroke="#000000" points="163,-166 163,-212 "/>
<text text-anchor="middle" x="233" y="-196.8" font-family="arial" font-size="14.00" fill="#000000">1</text>
<polyline fill="none" stroke="#000000" points="163,-189 303,-189 "/>
<text text-anchor="middle" x="233" y="-173.8" font-family="arial" font-size="14.00" fill="#000000">2</text>
</g>
<!-- W1 -->
<g id="node5" class="node">
<title>W1</title>
<polygon fill="none" stroke="#000000" points="651,-438 447,-438 447,-308 651,-308 651,-438"/>
<polygon fill="none" stroke="#000000" points="447,-415 447,-438 651,-438 651,-415 447,-415"/>
<text text-anchor="start" x="538" y="-422.8" font-family="arial" font-size="14.00" fill="#000000">W1</text>
<polygon fill="none" stroke="#000000" points="447,-392 447,-415 471,-415 471,-392 447,-392"/>
<text text-anchor="start" x="451" y="-399.8" font-family="arial" font-size="14.00" fill="#000000">2x</text>
<polygon fill="none" stroke="#000000" points="471,-392 471,-415 606,-415 606,-392 471,-392"/>
<text text-anchor="start" x="475" y="-399.8" font-family="arial" font-size="14.00" fill="#000000">0.25 mm² (24 AWG)</text>
<polygon fill="none" stroke="#000000" points="606,-392 606,-415 651,-415 651,-392 606,-392"/>
<text text-anchor="start" x="610" y="-399.8" font-family="arial" font-size="14.00" fill="#000000">0.2 m</text>
<text text-anchor="start" x="547" y="-380.8" font-family="arial" font-size="14.00" fill="#000000"> </text>
<text text-anchor="start" x="467" y="-363.8" font-family="arial" font-size="14.00" fill="#000000">X1:1</text>
<text text-anchor="start" x="539" y="-363.8" font-family="arial" font-size="14.00" fill="#000000">BK</text>
<text text-anchor="start" x="600" y="-363.8" font-family="arial" font-size="14.00" fill="#000000">X2:1</text>
<polygon fill="#000000" stroke="transparent" points="447,-352 447,-358 651,-358 651,-352 447,-352"/>
<polyline fill="none" stroke="#000000" stroke-width="2" points="448,-353 650,-353 "/>
<polyline fill="none" stroke="#000000" stroke-width="2" points="650,-357 448,-357 "/>
<text text-anchor="start" x="467" y="-338.8" font-family="arial" font-size="14.00" fill="#000000">X1:2</text>
<text text-anchor="start" x="538" y="-338.8" font-family="arial" font-size="14.00" fill="#000000">RD</text>
<text text-anchor="start" x="600" y="-338.8" font-family="arial" font-size="14.00" fill="#000000">X2:2</text>
<polygon fill="#ff0000" stroke="transparent" stroke-width="2" points="447,-327 447,-333 651,-333 651,-327 447,-327"/>
<polyline fill="none" stroke="#000000" stroke-width="2" points="448,-328 650,-328 "/>
<polyline fill="none" stroke="#000000" stroke-width="2" points="650,-332 448,-332 "/>
<text text-anchor="start" x="480.5" y="-313.8" font-family="arial" font-size="14.00" fill="#000000"> </text>
</g>
<!-- X1&#45;&#45;W1 -->
<g id="edge1" class="edge">
<title>X1:e&#45;&#45;W1:w</title>
<path fill="none" stroke="#000000" stroke-width="2" d="M303,-198C398.954,-200.5469 354.8936,-355.5469 447,-353"/>
<path fill="none" stroke="#000000" stroke-width="2" d="M303,-200C397.0302,-200 352.9698,-355 447,-355"/>
<path fill="none" stroke="#000000" stroke-width="2" d="M303,-202C395.1064,-199.4531 351.046,-354.4531 447,-357"/>
</g>
<!-- X1&#45;&#45;W1 -->
<g id="edge3" class="edge">
<title>X1:e&#45;&#45;W1:w</title>
<path fill="none" stroke="#000000" stroke-width="2" d="M303,-175C398.3071,-177.5383 355.5452,-330.5383 447,-328"/>
<path fill="none" stroke="#ff0000" stroke-width="2" d="M303,-177C396.3809,-177 353.6191,-330 447,-330"/>
<path fill="none" stroke="#000000" stroke-width="2" d="M303,-179C394.4548,-176.4617 351.6929,-329.4617 447,-332"/>
</g>
<!-- W2 -->
<g id="node6" class="node">
<title>W2</title>
<polygon fill="none" stroke="#000000" points="651,-284 447,-284 447,-154 651,-154 651,-284"/>
<polygon fill="none" stroke="#000000" points="447,-261 447,-284 651,-284 651,-261 447,-261"/>
<text text-anchor="start" x="538" y="-268.8" font-family="arial" font-size="14.00" fill="#000000">W2</text>
<polygon fill="none" stroke="#000000" points="447,-238 447,-261 471,-261 471,-238 447,-238"/>
<text text-anchor="start" x="451" y="-245.8" font-family="arial" font-size="14.00" fill="#000000">2x</text>
<polygon fill="none" stroke="#000000" points="471,-238 471,-261 606,-261 606,-238 471,-238"/>
<text text-anchor="start" x="475" y="-245.8" font-family="arial" font-size="14.00" fill="#000000">0.25 mm² (24 AWG)</text>
<polygon fill="none" stroke="#000000" points="606,-238 606,-261 651,-261 651,-238 606,-238"/>
<text text-anchor="start" x="610" y="-245.8" font-family="arial" font-size="14.00" fill="#000000">0.2 m</text>
<text text-anchor="start" x="547" y="-226.8" font-family="arial" font-size="14.00" fill="#000000"> </text>
<text text-anchor="start" x="467" y="-209.8" font-family="arial" font-size="14.00" fill="#000000">X1:1</text>
<text text-anchor="start" x="539" y="-209.8" font-family="arial" font-size="14.00" fill="#000000">BK</text>
<text text-anchor="start" x="600" y="-209.8" font-family="arial" font-size="14.00" fill="#000000">X3:1</text>
<polygon fill="#000000" stroke="transparent" points="447,-198 447,-204 651,-204 651,-198 447,-198"/>
<polyline fill="none" stroke="#000000" stroke-width="2" points="448,-199 650,-199 "/>
<polyline fill="none" stroke="#000000" stroke-width="2" points="650,-203 448,-203 "/>
<text text-anchor="start" x="467" y="-184.8" font-family="arial" font-size="14.00" fill="#000000">X1:2</text>
<text text-anchor="start" x="538" y="-184.8" font-family="arial" font-size="14.00" fill="#000000">RD</text>
<text text-anchor="start" x="600" y="-184.8" font-family="arial" font-size="14.00" fill="#000000">X3:2</text>
<polygon fill="#ff0000" stroke="transparent" stroke-width="2" points="447,-173 447,-179 651,-179 651,-173 447,-173"/>
<polyline fill="none" stroke="#000000" stroke-width="2" points="448,-174 650,-174 "/>
<polyline fill="none" stroke="#000000" stroke-width="2" points="650,-178 448,-178 "/>
<text text-anchor="start" x="480.5" y="-159.8" font-family="arial" font-size="14.00" fill="#000000"> </text>
</g>
<!-- X1&#45;&#45;W2 -->
<g id="edge5" class="edge">
<title>X1:e&#45;&#45;W2:w</title>
<path fill="none" stroke="#000000" stroke-width="2" d="M303,-198C367.1263,-198.0039 383.1232,-199.0039 447,-199"/>
<path fill="none" stroke="#000000" stroke-width="2" d="M303,-200C367.0015,-200 382.9985,-201 447,-201"/>
<path fill="none" stroke="#000000" stroke-width="2" d="M303,-202C366.8768,-201.9961 382.8737,-202.9961 447,-203"/>
</g>
<!-- X1&#45;&#45;W2 -->
<g id="edge7" class="edge">
<title>X1:e&#45;&#45;W2:w</title>
<path fill="none" stroke="#000000" stroke-width="2" d="M303,-175C366.8768,-175.0039 382.8737,-174.0039 447,-174"/>
<path fill="none" stroke="#ff0000" stroke-width="2" d="M303,-177C367.0015,-177 382.9985,-176 447,-176"/>
<path fill="none" stroke="#000000" stroke-width="2" d="M303,-179C367.1263,-178.9961 383.1232,-177.9961 447,-178"/>
</g>
<!-- W3 -->
<g id="node7" class="node">
<title>W3</title>
<polygon fill="none" stroke="#000000" points="651,-130 447,-130 447,0 651,0 651,-130"/>
<polygon fill="none" stroke="#000000" points="447,-107 447,-130 651,-130 651,-107 447,-107"/>
<text text-anchor="start" x="538" y="-114.8" font-family="arial" font-size="14.00" fill="#000000">W3</text>
<polygon fill="none" stroke="#000000" points="447,-84 447,-107 471,-107 471,-84 447,-84"/>
<text text-anchor="start" x="451" y="-91.8" font-family="arial" font-size="14.00" fill="#000000">2x</text>
<polygon fill="none" stroke="#000000" points="471,-84 471,-107 606,-107 606,-84 471,-84"/>
<text text-anchor="start" x="475" y="-91.8" font-family="arial" font-size="14.00" fill="#000000">0.25 mm² (24 AWG)</text>
<polygon fill="none" stroke="#000000" points="606,-84 606,-107 651,-107 651,-84 606,-84"/>
<text text-anchor="start" x="610" y="-91.8" font-family="arial" font-size="14.00" fill="#000000">0.2 m</text>
<text text-anchor="start" x="547" y="-72.8" font-family="arial" font-size="14.00" fill="#000000"> </text>
<text text-anchor="start" x="467" y="-55.8" font-family="arial" font-size="14.00" fill="#000000">X1:1</text>
<text text-anchor="start" x="539" y="-55.8" font-family="arial" font-size="14.00" fill="#000000">BK</text>
<text text-anchor="start" x="600" y="-55.8" font-family="arial" font-size="14.00" fill="#000000">X4:1</text>
<polygon fill="#000000" stroke="transparent" points="447,-44 447,-50 651,-50 651,-44 447,-44"/>
<polyline fill="none" stroke="#000000" stroke-width="2" points="448,-45 650,-45 "/>
<polyline fill="none" stroke="#000000" stroke-width="2" points="650,-49 448,-49 "/>
<text text-anchor="start" x="467" y="-30.8" font-family="arial" font-size="14.00" fill="#000000">X1:2</text>
<text text-anchor="start" x="538" y="-30.8" font-family="arial" font-size="14.00" fill="#000000">RD</text>
<text text-anchor="start" x="600" y="-30.8" font-family="arial" font-size="14.00" fill="#000000">X4:2</text>
<polygon fill="#ff0000" stroke="transparent" stroke-width="2" points="447,-19 447,-25 651,-25 651,-19 447,-19"/>
<polyline fill="none" stroke="#000000" stroke-width="2" points="448,-20 650,-20 "/>
<polyline fill="none" stroke="#000000" stroke-width="2" points="650,-24 448,-24 "/>
<text text-anchor="start" x="480.5" y="-5.8" font-family="arial" font-size="14.00" fill="#000000"> </text>
</g>
<!-- X1&#45;&#45;W3 -->
<g id="edge9" class="edge">
<title>X1:e&#45;&#45;W3:w</title>
<path fill="none" stroke="#000000" stroke-width="2" d="M303,-198C394.4548,-200.5383 351.6929,-47.5383 447,-45"/>
<path fill="none" stroke="#000000" stroke-width="2" d="M303,-200C396.3809,-200 353.6191,-47 447,-47"/>
<path fill="none" stroke="#000000" stroke-width="2" d="M303,-202C398.3071,-199.4617 355.5452,-46.4617 447,-49"/>
</g>
<!-- X1&#45;&#45;W3 -->
<g id="edge11" class="edge">
<title>X1:e&#45;&#45;W3:w</title>
<path fill="none" stroke="#000000" stroke-width="2" d="M303,-175C395.1064,-177.5469 351.046,-22.5469 447,-20"/>
<path fill="none" stroke="#ff0000" stroke-width="2" d="M303,-177C397.0302,-177 352.9698,-22 447,-22"/>
<path fill="none" stroke="#000000" stroke-width="2" d="M303,-179C398.954,-176.4531 354.8936,-21.4531 447,-24"/>
</g>
<!-- X2 -->
<g id="node2" class="node">
<title>X2</title>
<polygon fill="#ffffff" stroke="#000000" points="795,-320 795,-412 1110,-412 1110,-320 795,-320"/>
<text text-anchor="middle" x="952.5" y="-396.8" font-family="arial" font-size="14.00" fill="#000000">X2</text>
<polyline fill="none" stroke="#000000" points="795,-389 1110,-389 "/>
<text text-anchor="middle" x="840.5" y="-373.8" font-family="arial" font-size="14.00" fill="#000000">436450200</text>
<polyline fill="none" stroke="#000000" points="886,-366 886,-389 "/>
<text text-anchor="middle" x="943.5" y="-373.8" font-family="arial" font-size="14.00" fill="#000000">Molex Micro&#45;Fit</text>
<polyline fill="none" stroke="#000000" points="1001,-366 1001,-389 "/>
<text text-anchor="middle" x="1031" y="-373.8" font-family="arial" font-size="14.00" fill="#000000">female</text>
<polyline fill="none" stroke="#000000" points="1061,-366 1061,-389 "/>
<text text-anchor="middle" x="1085.5" y="-373.8" font-family="arial" font-size="14.00" fill="#000000">2&#45;pin</text>
<polyline fill="none" stroke="#000000" points="795,-366 1110,-366 "/>
<text text-anchor="middle" x="867.5" y="-350.8" font-family="arial" font-size="14.00" fill="#000000">1</text>
<polyline fill="none" stroke="#000000" points="795,-343 940,-343 "/>
<text text-anchor="middle" x="867.5" y="-327.8" font-family="arial" font-size="14.00" fill="#000000">2</text>
<polyline fill="none" stroke="#000000" points="940,-320 940,-366 "/>
<text text-anchor="middle" x="1025" y="-350.8" font-family="arial" font-size="14.00" fill="#000000">GND</text>
<polyline fill="none" stroke="#000000" points="940,-343 1110,-343 "/>
<text text-anchor="middle" x="1025" y="-327.8" font-family="arial" font-size="14.00" fill="#000000">VCC</text>
</g>
<!-- X3 -->
<g id="node3" class="node">
<title>X3</title>
<polygon fill="#ffffff" stroke="#000000" points="795,-166 795,-258 1110,-258 1110,-166 795,-166"/>
<text text-anchor="middle" x="952.5" y="-242.8" font-family="arial" font-size="14.00" fill="#000000">X3</text>
<polyline fill="none" stroke="#000000" points="795,-235 1110,-235 "/>
<text text-anchor="middle" x="840.5" y="-219.8" font-family="arial" font-size="14.00" fill="#000000">436450200</text>
<polyline fill="none" stroke="#000000" points="886,-212 886,-235 "/>
<text text-anchor="middle" x="943.5" y="-219.8" font-family="arial" font-size="14.00" fill="#000000">Molex Micro&#45;Fit</text>
<polyline fill="none" stroke="#000000" points="1001,-212 1001,-235 "/>
<text text-anchor="middle" x="1031" y="-219.8" font-family="arial" font-size="14.00" fill="#000000">female</text>
<polyline fill="none" stroke="#000000" points="1061,-212 1061,-235 "/>
<text text-anchor="middle" x="1085.5" y="-219.8" font-family="arial" font-size="14.00" fill="#000000">2&#45;pin</text>
<polyline fill="none" stroke="#000000" points="795,-212 1110,-212 "/>
<text text-anchor="middle" x="867.5" y="-196.8" font-family="arial" font-size="14.00" fill="#000000">1</text>
<polyline fill="none" stroke="#000000" points="795,-189 940,-189 "/>
<text text-anchor="middle" x="867.5" y="-173.8" font-family="arial" font-size="14.00" fill="#000000">2</text>
<polyline fill="none" stroke="#000000" points="940,-166 940,-212 "/>
<text text-anchor="middle" x="1025" y="-196.8" font-family="arial" font-size="14.00" fill="#000000">GND</text>
<polyline fill="none" stroke="#000000" points="940,-189 1110,-189 "/>
<text text-anchor="middle" x="1025" y="-173.8" font-family="arial" font-size="14.00" fill="#000000">VCC</text>
</g>
<!-- X4 -->
<g id="node4" class="node">
<title>X4</title>
<polygon fill="#ffffff" stroke="#000000" points="795,-12 795,-104 1110,-104 1110,-12 795,-12"/>
<text text-anchor="middle" x="952.5" y="-88.8" font-family="arial" font-size="14.00" fill="#000000">X4</text>
<polyline fill="none" stroke="#000000" points="795,-81 1110,-81 "/>
<text text-anchor="middle" x="840.5" y="-65.8" font-family="arial" font-size="14.00" fill="#000000">436450200</text>
<polyline fill="none" stroke="#000000" points="886,-58 886,-81 "/>
<text text-anchor="middle" x="943.5" y="-65.8" font-family="arial" font-size="14.00" fill="#000000">Molex Micro&#45;Fit</text>
<polyline fill="none" stroke="#000000" points="1001,-58 1001,-81 "/>
<text text-anchor="middle" x="1031" y="-65.8" font-family="arial" font-size="14.00" fill="#000000">female</text>
<polyline fill="none" stroke="#000000" points="1061,-58 1061,-81 "/>
<text text-anchor="middle" x="1085.5" y="-65.8" font-family="arial" font-size="14.00" fill="#000000">2&#45;pin</text>
<polyline fill="none" stroke="#000000" points="795,-58 1110,-58 "/>
<text text-anchor="middle" x="867.5" y="-42.8" font-family="arial" font-size="14.00" fill="#000000">1</text>
<polyline fill="none" stroke="#000000" points="795,-35 940,-35 "/>
<text text-anchor="middle" x="867.5" y="-19.8" font-family="arial" font-size="14.00" fill="#000000">2</text>
<polyline fill="none" stroke="#000000" points="940,-12 940,-58 "/>
<text text-anchor="middle" x="1025" y="-42.8" font-family="arial" font-size="14.00" fill="#000000">GND</text>
<polyline fill="none" stroke="#000000" points="940,-35 1110,-35 "/>
<text text-anchor="middle" x="1025" y="-19.8" font-family="arial" font-size="14.00" fill="#000000">VCC</text>
</g>
<!-- W1&#45;&#45;X2 -->
<g id="edge2" class="edge">
<title>W1:e&#45;&#45;X2:w</title>
<path fill="none" stroke="#000000" stroke-width="2" d="M651,-353C714.8768,-353.0039 730.8737,-352.0039 795,-352"/>
<path fill="none" stroke="#000000" stroke-width="2" d="M651,-355C715.0015,-355 730.9985,-354 795,-354"/>
<path fill="none" stroke="#000000" stroke-width="2" d="M651,-357C715.1263,-356.9961 731.1232,-355.9961 795,-356"/>
</g>
<!-- W1&#45;&#45;X2 -->
<g id="edge4" class="edge">
<title>W1:e&#45;&#45;X2:w</title>
<path fill="none" stroke="#000000" stroke-width="2" d="M651,-328C715.1263,-328.0039 731.1232,-329.0039 795,-329"/>
<path fill="none" stroke="#ff0000" stroke-width="2" d="M651,-330C715.0015,-330 730.9985,-331 795,-331"/>
<path fill="none" stroke="#000000" stroke-width="2" d="M651,-332C714.8768,-331.9961 730.8737,-332.9961 795,-333"/>
</g>
<!-- W2&#45;&#45;X3 -->
<g id="edge6" class="edge">
<title>W2:e&#45;&#45;X3:w</title>
<path fill="none" stroke="#000000" stroke-width="2" d="M651,-199C714.8768,-199.0039 730.8737,-198.0039 795,-198"/>
<path fill="none" stroke="#000000" stroke-width="2" d="M651,-201C715.0015,-201 730.9985,-200 795,-200"/>
<path fill="none" stroke="#000000" stroke-width="2" d="M651,-203C715.1263,-202.9961 731.1232,-201.9961 795,-202"/>
</g>
<!-- W2&#45;&#45;X3 -->
<g id="edge8" class="edge">
<title>W2:e&#45;&#45;X3:w</title>
<path fill="none" stroke="#000000" stroke-width="2" d="M651,-174C715.1263,-174.0039 731.1232,-175.0039 795,-175"/>
<path fill="none" stroke="#ff0000" stroke-width="2" d="M651,-176C715.0015,-176 730.9985,-177 795,-177"/>
<path fill="none" stroke="#000000" stroke-width="2" d="M651,-178C714.8768,-177.9961 730.8737,-178.9961 795,-179"/>
</g>
<!-- W3&#45;&#45;X4 -->
<g id="edge10" class="edge">
<title>W3:e&#45;&#45;X4:w</title>
<path fill="none" stroke="#000000" stroke-width="2" d="M651,-45C714.8768,-45.0039 730.8737,-44.0039 795,-44"/>
<path fill="none" stroke="#000000" stroke-width="2" d="M651,-47C715.0015,-47 730.9985,-46 795,-46"/>
<path fill="none" stroke="#000000" stroke-width="2" d="M651,-49C715.1263,-48.9961 731.1232,-47.9961 795,-48"/>
</g>
<!-- W3&#45;&#45;X4 -->
<g id="edge12" class="edge">
<title>W3:e&#45;&#45;X4:w</title>
<path fill="none" stroke="#000000" stroke-width="2" d="M651,-20C715.1263,-20.0039 731.1232,-21.0039 795,-21"/>
<path fill="none" stroke="#ff0000" stroke-width="2" d="M651,-22C715.0015,-22 730.9985,-23 795,-23"/>
<path fill="none" stroke="#000000" stroke-width="2" d="M651,-24C714.8768,-23.9961 730.8737,-24.9961 795,-25"/>
</g>
</g>
</svg>
